<svg id="Capa_1" enable-background="new 0 0 512 512" height="512" viewBox="0 0 512 512" width="512" xmlns="http://www.w3.org/2000/svg"><g><path d="m142 415.998v-300.305s-82.101-19.693-109.997-19.693c-17.674 0-32.003 14.326-32.003 32v287.997c0 35.346 28.654 64 64 64 .016 0 .032-.001.048-.001h-.048.048c35.324-.026 77.952-28.668 77.952-63.998z" fill="#d7d0e5"/><path d="m32.003 96c17.672.002 31.997 14.328 31.997 32v256c0 17.674 14.329 32.001 32.003 32l31.997-.002h88.43v-320z" fill="#ece6f2"/><path d="m512 32v384c0 35.34-28.65 64-64 64h-383.95c35.32-.03 63.95-28.67 63.95-64v-384z" fill="#fff5f5"/><path d="m512 32v384c0 35.34-28.65 64-64 64h-128v-448z" fill="#ece6f2"/><g fill="#a4abcb"><path d="m350.25 90.379h101.5v30h-101.5z"/><path d="m350.25 150.619h101.5v30h-101.5z"/><path d="m350.25 210.859h101.5v30h-101.5z"/></g><path d="m180.75 271.13h271v30h-271z" fill="#d7d0e5"/><path d="m180.75 331.37h271v30h-271z" fill="#d7d0e5"/><path d="m320 271.13h131.75v30h-131.75z" fill="#a4abcb"/><path d="m320 331.37h131.75v30h-131.75z" fill="#a4abcb"/><path d="m180.75 391.628h139.25v30h-139.25z" fill="#d7d0e5"/><path d="m320 240.869h-139.25v-150.499h139.25z" fill="#d7d0e5"/></g></svg>