<?xml version="1.0" encoding="iso-8859-1"?>
<!-- Generator: Adobe Illustrator 19.0.0, SVG Export Plug-In . SVG Version: 6.00 Build 0)  -->
<svg version="1.1" id="Capa_1" xmlns="http://www.w3.org/2000/svg" xmlns:xlink="http://www.w3.org/1999/xlink" x="0px" y="0px"
	 viewBox="0 0 468.293 468.293" style="enable-background:new 0 0 468.293 468.293;" xml:space="preserve">
<path style="fill:#2F4859;" d="M363.68,175.855c-3.102,0-6.124,0.32-9.082,0.826v105.68c2.958,0.506,5.98,0.826,9.082,0.826
	c29.638,0,53.666-24.027,53.666-53.665C417.345,199.881,393.318,175.855,363.68,175.855z"/>
<path style="fill:#64798A;" d="M118.673,323.441v40.023h22.02c2.837,0,4.766-2.88,3.685-5.504l-7.771-18.864v-11.932
	c0-2.056-1.667-3.723-3.723-3.723H118.673z"/>
<g>
	<polygon style="fill:#D15241;" points="44.697,293.64 72.297,420.375 127.81,420.375 127.81,293.64 	"/>
	<path style="fill:#D15241;" d="M41.528,192.94c-1.513-0.198-3.047-0.329-4.617-0.329C16.526,192.611,0,209.136,0,229.521
		c0,20.386,16.526,36.909,36.911,36.909c1.57,0,3.104-0.131,4.617-0.329V192.94z"/>
</g>
<path style="fill:#2F4859;" d="M149.112,158.868h-98.4c-13.628,0-24.675,11.048-24.675,24.675v91.953
	c0,13.628,11.047,24.674,24.675,24.674h98.4V158.868z"/>
<polygon style="fill:#D5D6DB;" points="358.471,63.44 131.678,158.87 131.678,300.172 358.471,395.601 "/>
<g>
	<path style="fill:#D15241;" d="M357.395,47.918c-7.13,0-12.91,5.779-12.91,12.91v337.385c0,7.13,5.78,12.91,12.91,12.91
		c7.13,0,12.91-5.781,12.91-12.91V60.828C370.305,53.697,364.526,47.918,357.395,47.918z"/>
	<path style="fill:#D15241;" d="M403.957,287.742c-1.225-2.577-4.317-3.666-6.884-2.436c-2.572,1.225-3.666,4.307-2.436,6.884
		l11.952,25.054c0.883,1.856,2.733,2.94,4.665,2.94c0.746,0,1.503-0.161,2.219-0.504c2.572-1.225,3.666-4.307,2.436-6.884
		L403.957,287.742z"/>
	<path style="fill:#D15241;" d="M425.758,267.651c-2.214-1.795-5.467-1.447-7.262,0.767c-1.795,2.214-1.452,5.467,0.767,7.262
		l21.574,17.469c0.953,0.772,2.103,1.15,3.243,1.15c1.508,0,2.996-0.656,4.019-1.916c1.795-2.214,1.452-5.467-0.767-7.262
		L425.758,267.651z"/>
	<path style="fill:#D15241;" d="M463.782,246.612l-26.99-6.48c-2.774-0.676-5.562,1.039-6.228,3.818
		c-0.666,2.774,1.044,5.562,3.818,6.228l26.99,6.48c0.403,0.096,0.812,0.141,1.21,0.141c2.33,0,4.448-1.589,5.018-3.959
		C468.265,250.066,466.556,247.277,463.782,246.612z"/>
	<path style="fill:#D15241;" d="M430.922,216.671c0.519,2.426,2.663,4.09,5.048,4.09c0.358,0,0.716-0.035,1.079-0.111l27.152-5.774
		c2.789-0.595,4.569-3.338,3.979-6.127c-0.6-2.794-3.364-4.579-6.127-3.979l-27.152,5.774
		C432.112,211.139,430.332,213.883,430.922,216.671z"/>
	<path style="fill:#D15241;" d="M419.505,191.895c1.014,1.326,2.547,2.022,4.1,2.022c1.094,0,2.204-0.348,3.137-1.069l22.018-16.899
		c2.264-1.735,2.693-4.977,0.953-7.237c-1.725-2.259-4.977-2.693-7.237-0.953l-22.018,16.899
		C418.193,186.393,417.765,189.636,419.505,191.895z"/>
	<path style="fill:#D15241;" d="M398.526,174.446c0.751,0.383,1.553,0.565,2.34,0.565c1.881,0,3.691-1.029,4.604-2.819
		l12.602-24.731c1.296-2.542,0.288-5.653-2.254-6.944c-2.557-1.306-5.653-0.287-6.944,2.254l-12.603,24.731
		C394.975,170.044,395.984,173.155,398.526,174.446z"/>
</g>
<g>
</g>
<g>
</g>
<g>
</g>
<g>
</g>
<g>
</g>
<g>
</g>
<g>
</g>
<g>
</g>
<g>
</g>
<g>
</g>
<g>
</g>
<g>
</g>
<g>
</g>
<g>
</g>
<g>
</g>
</svg>
