<svg id="Capa_1" enable-background="new 0 0 512 512" height="512" viewBox="0 0 512 512" width="512" xmlns="http://www.w3.org/2000/svg"><g><g><g><g><path d="m458.438 10h-165.893v73.881l.601-.11c18.763-3.435 36.05 10.976 36.05 30.05 0 19.076-17.287 33.488-36.052 30.056l-.599-.11v67.438h75.44l-1.363 7.449c-3.48 19.019 11.064 36.963 30.397 36.68 18.847-.275 32.999-17.436 29.593-36.048l-1.479-8.081h68.618v-165.892c0-19.503-15.81-35.313-35.313-35.313z" fill="#ffd89e"/></g></g><g><g><path d="m396.577 265.339c-11.805 0-22.955-5.196-30.671-14.315-7.08-8.369-10.503-19.038-9.684-29.818h-63.678c-5.522 0-10-4.477-10-10v-67.438c0-2.968 1.318-5.783 3.599-7.683 2.28-1.9 5.291-2.687 8.206-2.153l.599.11c6.015 1.102 12.158-.516 16.855-4.432 4.698-3.917 7.393-9.671 7.393-15.788 0-6.116-2.694-11.869-7.392-15.785-4.697-3.915-10.842-5.529-16.858-4.429l-.598.11c-2.921.535-5.926-.254-8.205-2.154s-3.598-4.714-3.598-7.682v-73.882c0-5.523 4.478-10 10-10h165.893c24.985 0 45.313 20.327 45.313 45.313v165.893c0 5.523-4.477 10-10 10h-56.797c.941 10.543-2.269 21.052-9.056 29.317-7.588 9.239-18.789 14.637-30.733 14.812-.196.003-.392.004-.588.004zm-94.032-64.133h65.439c2.967 0 5.781 1.318 7.682 3.597 1.899 2.279 2.69 5.284 2.155 8.203l-1.363 7.449c-1.154 6.309.565 12.742 4.717 17.65 4.021 4.752 9.605 7.308 15.698 7.231 6.048-.088 11.723-2.825 15.569-7.507 3.844-4.681 5.423-10.783 4.332-16.742l-1.478-8.082c-.534-2.919.256-5.924 2.156-8.203s4.714-3.597 7.681-3.597h58.617v-155.892c0-13.958-11.355-25.313-25.312-25.313h-155.893v53.452c8.028.769 15.716 3.931 22.064 9.223 9.27 7.727 14.586 19.08 14.586 31.147 0 12.068-5.316 23.422-14.586 31.149-6.349 5.293-14.036 8.456-22.064 9.226z"/></g></g></g><g><g><g><g><path d="m218.857 427.608c-18.763 3.437-36.052-10.973-36.052-30.048v-.005c0-19.076 17.288-33.487 36.053-30.053l.598.109v-66.817h-61.336c-.692-15.903-13.821-29.168-30.531-29.168-16.71 0-29.839 13.265-30.531 29.168h-78.808v165.893c0 19.503 15.81 35.313 35.313 35.313h165.893v-74.502z" fill="#c4ead9"/></g></g></g><g><g><path d="m420.662 337v-36.206h-68.618l1.479 8.081c3.406 18.613-10.746 35.773-29.593 36.048-19.333.282-33.878-17.661-30.397-36.68l1.363-7.449h-75.44v66.817l-.599-.11c-18.764-3.434-36.052 10.977-36.052 30.052v.006c0 19.075 17.289 33.485 36.052 30.048l.599-.11v74.503h165.893c19.503 0 35.313-15.81 35.313-35.313v-29.02" fill="#f5737f"/></g></g><g><g><g><path d="m220.055 173.36-.599.11v-73.882h-165.893c-19.503 0-35.313 15.81-35.313 35.313v165.893h78.808c.692-15.903 13.821-29.168 30.531-29.168 16.71 0 29.839 13.265 30.531 29.168h61.336v-67.438l.601.11c18.764 3.432 36.05-10.979 36.05-30.055-.001-19.075-17.289-33.486-36.052-30.051z" fill="#8481e2"/></g></g><path d="m420.661 347c5.523 0 10-4.477 10-10v-36.206c0-5.523-4.477-10-10-10h-68.617c-2.967 0-5.781 1.318-7.681 3.597s-2.69 5.284-2.156 8.203l1.479 8.082c1.091 5.959-.488 12.061-4.333 16.742-3.846 4.683-9.521 7.419-15.568 7.507-6.1.068-11.678-2.479-15.698-7.231-4.152-4.908-5.871-11.341-4.717-17.649l1.363-7.45c.534-2.919-.256-5.924-2.155-8.204-1.9-2.279-4.715-3.597-7.682-3.597h-65.44v-47.009c8.029-.77 15.716-3.932 22.065-9.225 9.27-7.728 14.585-19.081 14.585-31.149s-5.316-23.421-14.586-31.148c-6.349-5.292-14.036-8.454-22.064-9.223v-63.452c0-5.523-4.477-10-10-10h-165.893c-24.986 0-45.313 20.327-45.313 45.313v331.786c0 24.986 20.327 45.313 45.313 45.313h331.786c24.985 0 45.313-20.327 45.313-45.313v-29.021c0-5.523-4.477-10-10-10-5.522 0-10 4.477-10 10v29.021c0 13.957-11.355 25.313-25.313 25.313h-155.893v-64.502c0-2.966-1.317-5.78-3.595-7.68s-5.284-2.691-8.201-2.158l-.605.11c-6.016 1.101-12.161-.512-16.857-4.427-4.698-3.915-7.393-9.668-7.393-15.79 0-6.116 2.694-11.87 7.393-15.786 4.698-3.917 10.841-5.532 16.863-4.429l.599.109c2.915.531 5.922-.258 8.201-2.158 2.278-1.9 3.595-4.713 3.595-7.68v-56.817h53.678c-.82 10.78 2.603 21.448 9.684 29.817 7.844 9.271 19.272 14.499 31.258 14.312 11.943-.174 23.145-5.573 30.733-14.812 6.787-8.264 9.997-18.774 9.056-29.317h46.797v26.208c-.001 5.523 4.477 10 9.999 10zm-392.411-212.099c0-13.957 11.356-25.313 25.313-25.313h155.893v63.881c0 2.967 1.317 5.78 3.596 7.68 2.279 1.899 5.284 2.688 8.202 2.157l.599-.109s.002-.001.003-.001c6.015-1.1 12.161.513 16.859 4.429 4.698 3.917 7.392 9.67 7.392 15.786s-2.694 11.871-7.392 15.787-10.842 5.531-16.858 4.431l-.601-.11c-2.919-.534-5.924.256-8.203 2.156s-3.597 4.714-3.597 7.681v57.438h-42.908c-4.904-16.948-20.503-29.168-38.959-29.168s-34.054 12.22-38.958 29.168h-60.381zm159.142 231.504c-9.27 7.727-14.587 19.081-14.587 31.155 0 12.068 5.317 23.421 14.587 31.148 6.349 5.292 14.037 8.453 22.064 9.221v54.071h-155.893c-13.957 0-25.313-11.355-25.313-25.313v-155.893h68.809c5.354 0 9.758-4.217 9.991-9.565.478-10.992 9.5-19.602 20.54-19.602 11.039 0 20.062 8.61 20.54 19.602.233 5.349 4.637 9.565 9.991 9.565h51.336v46.388c-8.03.769-15.717 3.931-22.065 9.223z"/></g><g><g><g><path d="" fill="#f5737f"/></g></g><g><g><path d="m420.66 396.81c-4.188 0-7.991-2.697-9.407-6.632-1.391-3.865-.201-8.335 2.938-10.99 3.281-2.776 8.094-3.123 11.746-.864 3.502 2.167 5.341 6.406 4.533 10.446-.923 4.618-5.104 8.04-9.81 8.04z"/></g></g></g></g></g></svg>