<svg id="Capa_1" data-name="Capa 1" xmlns="http://www.w3.org/2000/svg" viewBox="0 0 1100 200"><defs><style>.cls-1{fill:#fefefe;}.cls-2{fill:#fda644;}.cls-3{fill:#cacdce;}.cls-4{fill:#fe7b4a;}.cls-5{fill:#fea746;}.cls-6{fill:#fea745;}.cls-7{fill:#c9cccd;}.cls-8{fill:#03093f;}.cls-9{fill:#fefcf9;}.cls-10{fill:#fdfdfd;}</style></defs><title>NombreLogo2</title><path class="cls-2" d="M213.12,195.94c9.89,0,19.66.24,28.67,5.44,10,5.8,15.17,15,19,25.38,8,22,16.26,43.9,24.23,65.92,7.54,20.82-1.64,41.84-22.27,49.83-24.15,9.36-48.54,18.13-72.87,27-9.49,3.48-18.89,2.8-28.17-1.21-2.06-.89-4.46-1-6.71-1.49-6.62-5.39-12.13-11.49-15.15-19.81q-12.56-34.56-25.71-68.92c-9.34-24.34,2.92-49,25.82-55.33,7.31-2,14.26-5.29,21.4-7.92Q187.21,205.38,213.12,195.94Zm5.36,50,2.89-.41c2.22,4.12,4.87,8.08,6.58,12.4a217.3,217.3,0,0,1,13.88,55.78c.46,4.23,2,4.64,5.4,3.14,3.19-1.39,6.49-2.56,9.76-3.76,8.88-3.27,8.89-3.26,6.83-12.54a11.91,11.91,0,0,0-.49-1.42c-7.11-19.62-13.91-39.35-21.48-58.79-3-7.64-7.48-14.74-11.78-21.79-.94-1.53-4.17-2.81-6-2.46-10.28,1.94-17.59,7.27-19.3,18.46-.62,4.07-2.1,8-2.85,12.07-.83,4.44-1.29,9-2.06,14.57-2.2-1.95-3.45-3.18-4.83-4.27-7.43-5.84-14.78-11.8-22.43-17.35-1.79-1.3-5-2.2-6.93-1.53-17.87,6.1-19.14,3-14.48,21.16,4.1,16,9.81,31.65,15.45,47.22,3.61,9.94,8.27,19.51,12.78,29.1.86,1.85,3.64,4.52,4.84,4.2,6.13-1.63,12-4.13,18.35-6.44-.91-1.73-1.33-2.59-1.8-3.42-7.62-13.57-15.61-26.95-22.72-40.78C175,283,173.46,276,171.53,269.32c-.44-1.5.37-3.37.6-5.07,1.79.54,3.81.72,5.3,1.71a25.45,25.45,0,0,1,5.45,5.07q11.49,14.1,22.75,28.38c2.51,3.17,5.07,5.84,9.63,3.91s3.52-5.62,3.21-9.33c-.94-11.08-2-22.18-2.26-33.28C216.08,255.81,217.67,250.87,218.48,245.94Z" transform="translate(-56 -182)"/><path class="cls-3" d="M1043,336.34c7.54,2,14.45,4.76,21.56,5.43,18,1.69,31.55-8,29.36-28.72-5,3.11-10,7.65-15.8,9.52-16.58,5.3-33-2.27-38.9-18.73-6-16.88-5.65-34.07,4.76-49.68,9.13-13.7,28.12-18.42,41.92-10.61,2.82,1.59,5.11,4.12,7.89,6.42.17-2.4.34-4.9.52-7.66h24.33c.12,1.67.33,3.11.33,4.56,0,23,.35,46-.13,68.93-.32,15.78-6,29.32-20.52,37.48-12.55,7.05-26.36,8.16-40.16,6.08-15.26-2.3-15.17-2.87-15.16-18.4Zm51.84-54.95-.83-.15c0-2.5.15-5,0-7.49a16.63,16.63,0,0,0-13-14.59,15.37,15.37,0,0,0-16.68,8.21c-4.37,8.41-4.47,17.28-1.92,26.14,2.09,7.29,7.29,11.22,14,11.48,7,.27,13-3.26,15.63-10.15C1093.57,290.61,1093.92,285.89,1094.84,281.39Z" transform="translate(-56 -182)"/><path class="cls-3" d="M800.54,242.28h24.39v12.4c5.78-8.07,12.05-12.68,20.48-14.38,16.47-3.32,31.06,7.22,31.5,23.93.5,18.93.12,37.89.12,57.3H853.28c-.08-1.52-.27-3.27-.27-5,0-12.83.06-25.66-.06-38.49a40.09,40.09,0,0,0-1.18-9.84,11.75,11.75,0,0,0-10.11-9.09c-5-.8-11,1.76-13.44,6.72a28.09,28.09,0,0,0-3.06,11.34c-.35,14.64-.14,29.29-.14,44.39H800.54Z" transform="translate(-56 -182)"/><path class="cls-3" d="M968,321.78H943.48V242.46h24.23c.16,3.4.32,7,.52,11.2,2.14-2.27,3.85-4.37,5.84-6.16,9.39-8.39,20.3-9.81,31.6-5.31,9.85,3.93,14.07,12.59,14.27,22.7.37,18.75.11,37.52.11,56.7H996.27c-.09-1.71-.26-3.47-.26-5.23,0-13,.06-26-.07-39a35.72,35.72,0,0,0-1.2-9.34,11.77,11.77,0,0,0-10.24-9A13.23,13.23,0,0,0,971.14,266a27.13,27.13,0,0,0-3,10.86c-.35,13-.14,26-.14,39Z" transform="translate(-56 -182)"/><path class="cls-4" d="M213.12,195.94q-25.91,9.47-51.8,18.93c-7.14,2.63-14.09,5.9-21.4,7.92-22.9,6.32-35.16,31-25.82,55.33q13.19,34.33,25.71,68.92c3,8.32,8.53,14.42,15.15,19.81-17.23,1.69-32.76-7.24-38.95-23.31-9.48-24.62-18.78-49.32-27.55-74.2-6.86-19.47,2.36-40,21.59-47.63C134.76,212,159.77,203,184.76,194,194.33,190.5,204,190.8,213.12,195.94Z" transform="translate(-56 -182)"/><path class="cls-5" d="M350,269.7c.33-8-3.69-12.25-11.79-12.62a44.71,44.71,0,0,0-23.47,5.67c-1.56.84-3.09,1.71-5.56,3.08,0-6.4-.16-11.82.12-17.21.06-1.06,1.6-2.49,2.77-3,11.12-4.46,22.68-6.88,34.64-5.3,16.56,2.2,25.62,10.57,26.71,27.23,1.17,17.87.26,35.87.26,54.13H350.65c-.18-3.24-.35-6.28-.57-10.28-1.41,1.52-2.17,2.3-2.87,3.13-8.65,10.15-24,12.71-35.36,5.75-7.92-4.88-10.64-12.61-10.48-21.36.16-9.38,3.41-18,12.55-21.58,8.23-3.21,17.27-4.37,26-6.27C343.13,270.41,346.46,270.18,350,269.7Zm.16,13.91c-6.27,1.07-12.65,1.78-18.82,3.32a9.34,9.34,0,0,0-7.18,10.53c.62,4.93,4.55,8.23,10.09,8.5C345.31,306.49,352.44,297,350.19,283.61Z" transform="translate(-56 -182)"/><path class="cls-3" d="M716.84,321.8H694.28c-.22-3.48-.43-6.83-.61-9.59-2.31,1.89-4.8,3.73-7.07,5.81-11.55,10.53-33.17,7.27-39.63-6.4-6.58-13.91-1.82-31.92,15.16-36.61,9-2.5,18.5-3.56,27.83-4.84,3.59-.5,4-1.78,3.14-4.85-1.37-4.71-6-8.06-12.3-8.3-8.72-.34-16.73,2.11-24.28,6.29-1.1.6-2.22,1.18-4.4,2.33,0-6.29-.09-11.68.09-17.06a3.58,3.58,0,0,1,2-2.54c15-5.59,30.32-9.24,46-2.89,10.71,4.34,15.95,13.47,16.43,24.28C717.42,285.34,716.84,303.31,716.84,321.8Zm-23.3-38.34c-6.92,1.29-13.61,2-20,3.89a9.25,9.25,0,0,0-6.38,10.56c1,4.8,5.11,8,10.52,8.08C688.29,306.19,694.8,297.62,693.54,283.46Z" transform="translate(-56 -182)"/><path class="cls-3" d="M636,289H584.61c.13,10.23,7.11,17,18.59,16.77,7.3-.15,14.56-2.41,21.83-3.75,1.08-.21,2.12-.62,4-1.16,0,5.45.21,10.39-.14,15.29-.09,1.21-1.74,2.89-3,3.36-16.71,6-33.55,7.52-49.55-1.61-8.71-5-14-13.32-15.49-23.39-2.06-14.1-1.82-27.89,7.77-39.81,9.8-12.18,22.87-16.57,37.73-14.24,19.59,3.08,29.61,15.76,29.75,35.71C636.06,280.14,636,284.12,636,289Zm-23.45-15.26c1.12-9.5-3.49-16.08-11.28-16.71-8.75-.7-16.27,6.66-16.81,16.71Z" transform="translate(-56 -182)"/><path class="cls-6" d="M384.53,322c8.56-12.62,16.37-24.38,24.49-35.92,2.08-3,2-5.05.09-8-6.73-10.31-13.22-20.78-19.78-31.2-.85-1.36-1.58-2.79-2.79-4.94,9.34,0,17.92-.14,26.49.15,1.26.05,2.88,1.94,3.62,3.35,4.38,8.37,8.56,16.85,12.93,25.55,4.5-8.64,9-17,13.15-25.44,1.39-2.82,3.06-3.79,6.14-3.69,7.25.22,14.5.07,22.81.07-4.92,7.27-9.26,13.69-13.61,20.1-3.37,5-6.55,10.06-10.22,14.78-2.29,2.94-1.87,5.1,0,8,7.8,12,15.4,24.09,23.74,37.19-5.37,0-10-.66-14.36.13-11.19,2-17.56-2.58-21.26-12.92-1.86-5.22-5.1-9.95-8-15.38-4.45,8.43-8.78,16.39-12.83,24.48-1.38,2.75-3,3.85-6.16,3.77C401.2,321.89,393.4,322,384.53,322Z" transform="translate(-56 -182)"/><path class="cls-7" d="M509.85,302.15h41.74v19.49H485.33V210.42h24.52Z" transform="translate(-56 -182)"/><path class="cls-3" d="M788.92,262.18c-5.4-.3-10.09-1.38-14.47-.63-8.26,1.42-13.25,9.42-13.39,20.29-.15,11.31,0,22.63,0,34v5.81H736.49V242.32h24.24V255c2.54-3.44,4.25-6.12,6.31-8.49,4.91-5.65,11.44-7.15,18.53-6.29,1.23.15,3.14,2.1,3.2,3.3C789.09,249.76,788.92,256.06,788.92,262.18Z" transform="translate(-56 -182)"/><path class="cls-3" d="M921.79,242.32V321.6H897.48V242.32Z" transform="translate(-56 -182)"/><path class="cls-3" d="M924,216.62C924,224,918.17,229,909.56,229c-7.91,0-13.65-5.35-13.61-12.67s5.84-12.41,14.42-12.33C918.44,204.07,924.05,209.27,924,216.62Z" transform="translate(-56 -182)"/><path class="cls-8" d="M218.48,245.94c-.81,4.93-2.4,9.87-2.27,14.77.29,11.1,1.32,22.2,2.26,33.28.31,3.71,1.38,7.38-3.21,9.33s-7.12-.74-9.63-3.91q-11.3-14.25-22.75-28.38a25.45,25.45,0,0,0-5.45-5.07c-1.49-1-3.51-1.17-5.3-1.71-.23,1.7-1,3.57-.6,5.07,1.93,6.67,3.42,13.65,6.55,19.76,7.11,13.83,15.1,27.21,22.72,40.78.47.83.89,1.69,1.8,3.42-6.31,2.31-12.22,4.81-18.35,6.44-1.2.32-4-2.35-4.84-4.2-4.51-9.59-9.17-19.16-12.78-29.1-5.64-15.57-11.35-31.21-15.45-47.22-4.66-18.2-3.39-15.06,14.48-21.16,2-.67,5.14.23,6.93,1.53,7.65,5.55,15,11.51,22.43,17.35,1.38,1.09,2.63,2.32,4.83,4.27.77-5.61,1.23-10.13,2.06-14.57.75-4.06,2.23-8,2.85-12.07,1.71-11.19,9-16.52,19.3-18.46,1.84-.35,5.07.93,6,2.46,4.3,7,8.8,14.15,11.78,21.79,7.57,19.44,14.37,39.17,21.48,58.79a11.91,11.91,0,0,1,.49,1.42c2.06,9.28,2.05,9.27-6.83,12.54-3.27,1.2-6.57,2.37-9.76,3.76-3.41,1.5-4.94,1.09-5.4-3.14A217.3,217.3,0,0,0,228,257.93c-1.71-4.32-4.36-8.28-6.58-12.4Z" transform="translate(-56 -182)"/></svg>